<mxfile host="app.diagrams.net" agent="Mozilla/5.0 (Windows NT 10.0; Win64; x64) AppleWebKit/537.36 (KHTML, like Gecko) Chrome/136.0.0.0 Safari/537.36" version="26.2.15">
  <diagram name="第 1 页" id="jRXeSdGXcH6ARnajuJ7t">
    <mxGraphModel dx="1426" dy="838" grid="1" gridSize="10" guides="1" tooltips="1" connect="1" arrows="1" fold="1" page="1" pageScale="1" pageWidth="827" pageHeight="1169" math="0" shadow="0">
      <root>
        <mxCell id="0" />
        <mxCell id="1" parent="0" />
        <mxCell id="Vz8ZlKg2i7Nz76ooLruL-23" value="" style="rounded=1;whiteSpace=wrap;html=1;" vertex="1" parent="1">
          <mxGeometry x="175" y="585" width="350" height="215" as="geometry" />
        </mxCell>
        <mxCell id="Vz8ZlKg2i7Nz76ooLruL-1" value="" style="outlineConnect=0;dashed=0;verticalLabelPosition=bottom;verticalAlign=top;align=center;html=1;shape=mxgraph.aws3.mysql_db_instance_2;fillColor=#2E73B8;gradientColor=none;" vertex="1" parent="1">
          <mxGeometry x="320" y="250" width="60" height="63" as="geometry" />
        </mxCell>
        <mxCell id="Vz8ZlKg2i7Nz76ooLruL-2" value="APPLICATION" style="rounded=1;whiteSpace=wrap;html=1;" vertex="1" parent="1">
          <mxGeometry x="150" y="120" width="120" height="60" as="geometry" />
        </mxCell>
        <mxCell id="Vz8ZlKg2i7Nz76ooLruL-3" value="APPLICATION" style="rounded=1;whiteSpace=wrap;html=1;" vertex="1" parent="1">
          <mxGeometry x="290" y="120" width="120" height="60" as="geometry" />
        </mxCell>
        <mxCell id="Vz8ZlKg2i7Nz76ooLruL-8" style="edgeStyle=elbowEdgeStyle;rounded=0;orthogonalLoop=1;jettySize=auto;html=1;elbow=vertical;entryX=0.5;entryY=0;entryDx=0;entryDy=0;entryPerimeter=0;" edge="1" parent="1" source="Vz8ZlKg2i7Nz76ooLruL-4" target="Vz8ZlKg2i7Nz76ooLruL-1">
          <mxGeometry relative="1" as="geometry">
            <mxPoint x="330" y="250" as="targetPoint" />
          </mxGeometry>
        </mxCell>
        <mxCell id="Vz8ZlKg2i7Nz76ooLruL-4" value="APPLICATION" style="rounded=1;whiteSpace=wrap;html=1;" vertex="1" parent="1">
          <mxGeometry x="430" y="120" width="120" height="60" as="geometry" />
        </mxCell>
        <mxCell id="Vz8ZlKg2i7Nz76ooLruL-6" style="edgeStyle=elbowEdgeStyle;rounded=0;orthogonalLoop=1;jettySize=auto;html=1;entryX=0.5;entryY=0;entryDx=0;entryDy=0;entryPerimeter=0;elbow=vertical;" edge="1" parent="1" source="Vz8ZlKg2i7Nz76ooLruL-2" target="Vz8ZlKg2i7Nz76ooLruL-1">
          <mxGeometry relative="1" as="geometry" />
        </mxCell>
        <mxCell id="Vz8ZlKg2i7Nz76ooLruL-7" style="edgeStyle=orthogonalEdgeStyle;rounded=0;orthogonalLoop=1;jettySize=auto;html=1;entryX=0.5;entryY=0;entryDx=0;entryDy=0;entryPerimeter=0;" edge="1" parent="1" source="Vz8ZlKg2i7Nz76ooLruL-3" target="Vz8ZlKg2i7Nz76ooLruL-1">
          <mxGeometry relative="1" as="geometry" />
        </mxCell>
        <mxCell id="Vz8ZlKg2i7Nz76ooLruL-9" value="CRM-2" style="outlineConnect=0;dashed=0;verticalLabelPosition=bottom;verticalAlign=top;align=center;html=1;shape=mxgraph.aws3.mysql_db_instance_2;fillColor=#2E73B8;gradientColor=none;" vertex="1" parent="1">
          <mxGeometry x="310" y="605" width="60" height="63" as="geometry" />
        </mxCell>
        <mxCell id="Vz8ZlKg2i7Nz76ooLruL-24" style="edgeStyle=orthogonalEdgeStyle;rounded=0;orthogonalLoop=1;jettySize=auto;html=1;entryX=0.5;entryY=0;entryDx=0;entryDy=0;" edge="1" parent="1" source="Vz8ZlKg2i7Nz76ooLruL-10" target="Vz8ZlKg2i7Nz76ooLruL-23">
          <mxGeometry relative="1" as="geometry" />
        </mxCell>
        <mxCell id="Vz8ZlKg2i7Nz76ooLruL-10" value="APPLICATION" style="rounded=1;whiteSpace=wrap;html=1;" vertex="1" parent="1">
          <mxGeometry x="150" y="430" width="120" height="60" as="geometry" />
        </mxCell>
        <mxCell id="Vz8ZlKg2i7Nz76ooLruL-25" style="edgeStyle=orthogonalEdgeStyle;rounded=0;orthogonalLoop=1;jettySize=auto;html=1;entryX=0.5;entryY=0;entryDx=0;entryDy=0;" edge="1" parent="1" source="Vz8ZlKg2i7Nz76ooLruL-11" target="Vz8ZlKg2i7Nz76ooLruL-23">
          <mxGeometry relative="1" as="geometry" />
        </mxCell>
        <mxCell id="Vz8ZlKg2i7Nz76ooLruL-11" value="APPLICATION" style="rounded=1;whiteSpace=wrap;html=1;" vertex="1" parent="1">
          <mxGeometry x="290" y="430" width="120" height="60" as="geometry" />
        </mxCell>
        <mxCell id="Vz8ZlKg2i7Nz76ooLruL-26" style="edgeStyle=orthogonalEdgeStyle;rounded=0;orthogonalLoop=1;jettySize=auto;html=1;entryX=0.5;entryY=0;entryDx=0;entryDy=0;" edge="1" parent="1" source="Vz8ZlKg2i7Nz76ooLruL-13" target="Vz8ZlKg2i7Nz76ooLruL-23">
          <mxGeometry relative="1" as="geometry" />
        </mxCell>
        <mxCell id="Vz8ZlKg2i7Nz76ooLruL-13" value="APPLICATION" style="rounded=1;whiteSpace=wrap;html=1;" vertex="1" parent="1">
          <mxGeometry x="430" y="430" width="120" height="60" as="geometry" />
        </mxCell>
        <mxCell id="Vz8ZlKg2i7Nz76ooLruL-16" value="CRM-1" style="outlineConnect=0;dashed=0;verticalLabelPosition=bottom;verticalAlign=top;align=center;html=1;shape=mxgraph.aws3.mysql_db_instance_2;fillColor=#2E73B8;gradientColor=none;" vertex="1" parent="1">
          <mxGeometry x="200" y="605" width="60" height="63" as="geometry" />
        </mxCell>
        <mxCell id="Vz8ZlKg2i7Nz76ooLruL-17" value="CRM-3" style="outlineConnect=0;dashed=0;verticalLabelPosition=bottom;verticalAlign=top;align=center;html=1;shape=mxgraph.aws3.mysql_db_instance_2;fillColor=#2E73B8;gradientColor=none;" vertex="1" parent="1">
          <mxGeometry x="430" y="605" width="60" height="63" as="geometry" />
        </mxCell>
        <mxCell id="Vz8ZlKg2i7Nz76ooLruL-18" value="Dashboard" style="outlineConnect=0;dashed=0;verticalLabelPosition=bottom;verticalAlign=top;align=center;html=1;shape=mxgraph.aws3.mysql_db_instance_2;fillColor=#2E73B8;gradientColor=none;" vertex="1" parent="1">
          <mxGeometry x="200" y="705" width="60" height="63" as="geometry" />
        </mxCell>
        <mxCell id="Vz8ZlKg2i7Nz76ooLruL-19" value="Client-line" style="outlineConnect=0;dashed=0;verticalLabelPosition=bottom;verticalAlign=top;align=center;html=1;shape=mxgraph.aws3.mysql_db_instance_2;fillColor=#2E73B8;gradientColor=none;" vertex="1" parent="1">
          <mxGeometry x="310" y="705" width="60" height="63" as="geometry" />
        </mxCell>
        <mxCell id="Vz8ZlKg2i7Nz76ooLruL-22" value="Other" style="outlineConnect=0;dashed=0;verticalLabelPosition=bottom;verticalAlign=top;align=center;html=1;shape=mxgraph.aws3.mysql_db_instance_2;fillColor=#2E73B8;gradientColor=none;" vertex="1" parent="1">
          <mxGeometry x="430" y="705" width="60" height="63" as="geometry" />
        </mxCell>
      </root>
    </mxGraphModel>
  </diagram>
</mxfile>
